<mxfile host="drawio-plugin" modified="2024-04-19T13:19:42.279Z" agent="5.0 (X11; Linux x86_64) AppleWebKit/537.36 (KHTML, like Gecko) Chrome/122.0.0.0 Safari/537.36" etag="5WjKmkD19m1_IVH2PUGz" version="20.5.3" type="embed"><diagram name="Seite-1" id="fGJd68UBWW3sheCVzWhj"><mxGraphModel dx="415" dy="370" grid="1" gridSize="10" guides="1" tooltips="1" connect="1" arrows="1" fold="1" page="1" pageScale="1" pageWidth="827" pageHeight="1169" math="0" shadow="0"><root><mxCell id="0"/><mxCell id="1" parent="0"/><mxCell id="ygsTHAakZKHn0m8YTthS-1" value="Scene" style="swimlane;fontStyle=1;align=center;verticalAlign=top;childLayout=stackLayout;horizontal=1;startSize=26;horizontalStack=0;resizeParent=1;resizeParentMax=0;resizeLast=0;collapsible=1;marginBottom=0;whiteSpace=wrap;html=1;" parent="1" vertex="1"><mxGeometry x="360" y="260" width="160" height="86" as="geometry"/></mxCell><mxCell id="ygsTHAakZKHn0m8YTthS-2" value="+ field: type" style="text;strokeColor=none;fillColor=none;align=left;verticalAlign=top;spacingLeft=4;spacingRight=4;overflow=hidden;rotatable=0;points=[[0,0.5],[1,0.5]];portConstraint=eastwest;whiteSpace=wrap;html=1;" parent="ygsTHAakZKHn0m8YTthS-1" vertex="1"><mxGeometry y="26" width="160" height="26" as="geometry"/></mxCell><mxCell id="ygsTHAakZKHn0m8YTthS-3" value="" style="line;strokeWidth=1;fillColor=none;align=left;verticalAlign=middle;spacingTop=-1;spacingLeft=3;spacingRight=3;rotatable=0;labelPosition=right;points=[];portConstraint=eastwest;strokeColor=inherit;" parent="ygsTHAakZKHn0m8YTthS-1" vertex="1"><mxGeometry y="52" width="160" height="8" as="geometry"/></mxCell><mxCell id="ygsTHAakZKHn0m8YTthS-4" value="+ method(type): type" style="text;strokeColor=none;fillColor=none;align=left;verticalAlign=top;spacingLeft=4;spacingRight=4;overflow=hidden;rotatable=0;points=[[0,0.5],[1,0.5]];portConstraint=eastwest;whiteSpace=wrap;html=1;" parent="ygsTHAakZKHn0m8YTthS-1" vertex="1"><mxGeometry y="60" width="160" height="26" as="geometry"/></mxCell><mxCell id="ygsTHAakZKHn0m8YTthS-9" value="SceneView" style="swimlane;fontStyle=1;align=center;verticalAlign=top;childLayout=stackLayout;horizontal=1;startSize=26;horizontalStack=0;resizeParent=1;resizeParentMax=0;resizeLast=0;collapsible=1;marginBottom=0;whiteSpace=wrap;html=1;" parent="1" vertex="1"><mxGeometry x="360" y="420" width="160" height="86" as="geometry"/></mxCell><mxCell id="ygsTHAakZKHn0m8YTthS-10" value="+ field: type" style="text;strokeColor=none;fillColor=none;align=left;verticalAlign=top;spacingLeft=4;spacingRight=4;overflow=hidden;rotatable=0;points=[[0,0.5],[1,0.5]];portConstraint=eastwest;whiteSpace=wrap;html=1;" parent="ygsTHAakZKHn0m8YTthS-9" vertex="1"><mxGeometry y="26" width="160" height="26" as="geometry"/></mxCell><mxCell id="ygsTHAakZKHn0m8YTthS-11" value="" style="line;strokeWidth=1;fillColor=none;align=left;verticalAlign=middle;spacingTop=-1;spacingLeft=3;spacingRight=3;rotatable=0;labelPosition=right;points=[];portConstraint=eastwest;strokeColor=inherit;" parent="ygsTHAakZKHn0m8YTthS-9" vertex="1"><mxGeometry y="52" width="160" height="8" as="geometry"/></mxCell><mxCell id="ygsTHAakZKHn0m8YTthS-12" value="+ method(type): type" style="text;strokeColor=none;fillColor=none;align=left;verticalAlign=top;spacingLeft=4;spacingRight=4;overflow=hidden;rotatable=0;points=[[0,0.5],[1,0.5]];portConstraint=eastwest;whiteSpace=wrap;html=1;" parent="ygsTHAakZKHn0m8YTthS-9" vertex="1"><mxGeometry y="60" width="160" height="26" as="geometry"/></mxCell><mxCell id="ygsTHAakZKHn0m8YTthS-13" value="" style="endArrow=diamondThin;endFill=0;endSize=24;html=1;rounded=0;entryX=0.5;entryY=1;entryDx=0;entryDy=0;" parent="1" source="ygsTHAakZKHn0m8YTthS-9" target="ygsTHAakZKHn0m8YTthS-1" edge="1"><mxGeometry width="160" relative="1" as="geometry"><mxPoint x="360" y="480" as="sourcePoint"/><mxPoint x="520" y="480" as="targetPoint"/></mxGeometry></mxCell><mxCell id="ygsTHAakZKHn0m8YTthS-15" value="ViewElement" style="swimlane;fontStyle=1;align=center;verticalAlign=top;childLayout=stackLayout;horizontal=1;startSize=26;horizontalStack=0;resizeParent=1;resizeParentMax=0;resizeLast=0;collapsible=1;marginBottom=0;whiteSpace=wrap;html=1;" parent="1" vertex="1"><mxGeometry x="360" y="570" width="160" height="86" as="geometry"/></mxCell><mxCell id="ygsTHAakZKHn0m8YTthS-16" value="+ field: type" style="text;strokeColor=none;fillColor=none;align=left;verticalAlign=top;spacingLeft=4;spacingRight=4;overflow=hidden;rotatable=0;points=[[0,0.5],[1,0.5]];portConstraint=eastwest;whiteSpace=wrap;html=1;" parent="ygsTHAakZKHn0m8YTthS-15" vertex="1"><mxGeometry y="26" width="160" height="26" as="geometry"/></mxCell><mxCell id="ygsTHAakZKHn0m8YTthS-17" value="" style="line;strokeWidth=1;fillColor=none;align=left;verticalAlign=middle;spacingTop=-1;spacingLeft=3;spacingRight=3;rotatable=0;labelPosition=right;points=[];portConstraint=eastwest;strokeColor=inherit;" parent="ygsTHAakZKHn0m8YTthS-15" vertex="1"><mxGeometry y="52" width="160" height="8" as="geometry"/></mxCell><mxCell id="ygsTHAakZKHn0m8YTthS-18" value="+ method(type): type" style="text;strokeColor=none;fillColor=none;align=left;verticalAlign=top;spacingLeft=4;spacingRight=4;overflow=hidden;rotatable=0;points=[[0,0.5],[1,0.5]];portConstraint=eastwest;whiteSpace=wrap;html=1;" parent="ygsTHAakZKHn0m8YTthS-15" vertex="1"><mxGeometry y="60" width="160" height="26" as="geometry"/></mxCell><mxCell id="ygsTHAakZKHn0m8YTthS-19" value="SceneData" style="swimlane;fontStyle=1;align=center;verticalAlign=top;childLayout=stackLayout;horizontal=1;startSize=26;horizontalStack=0;resizeParent=1;resizeParentMax=0;resizeLast=0;collapsible=1;marginBottom=0;whiteSpace=wrap;html=1;" parent="1" vertex="1"><mxGeometry x="100" y="260" width="160" height="86" as="geometry"/></mxCell><mxCell id="ygsTHAakZKHn0m8YTthS-20" value="+ field: type" style="text;strokeColor=none;fillColor=none;align=left;verticalAlign=top;spacingLeft=4;spacingRight=4;overflow=hidden;rotatable=0;points=[[0,0.5],[1,0.5]];portConstraint=eastwest;whiteSpace=wrap;html=1;" parent="ygsTHAakZKHn0m8YTthS-19" vertex="1"><mxGeometry y="26" width="160" height="26" as="geometry"/></mxCell><mxCell id="ygsTHAakZKHn0m8YTthS-21" value="" style="line;strokeWidth=1;fillColor=none;align=left;verticalAlign=middle;spacingTop=-1;spacingLeft=3;spacingRight=3;rotatable=0;labelPosition=right;points=[];portConstraint=eastwest;strokeColor=inherit;" parent="ygsTHAakZKHn0m8YTthS-19" vertex="1"><mxGeometry y="52" width="160" height="8" as="geometry"/></mxCell><mxCell id="ygsTHAakZKHn0m8YTthS-22" value="+ method(type): type" style="text;strokeColor=none;fillColor=none;align=left;verticalAlign=top;spacingLeft=4;spacingRight=4;overflow=hidden;rotatable=0;points=[[0,0.5],[1,0.5]];portConstraint=eastwest;whiteSpace=wrap;html=1;" parent="ygsTHAakZKHn0m8YTthS-19" vertex="1"><mxGeometry y="60" width="160" height="26" as="geometry"/></mxCell><mxCell id="ygsTHAakZKHn0m8YTthS-24" value="" style="endArrow=diamondThin;endFill=1;endSize=24;html=1;rounded=0;entryX=0;entryY=0.645;entryDx=0;entryDy=0;entryPerimeter=0;" parent="1" target="ygsTHAakZKHn0m8YTthS-2" edge="1"><mxGeometry width="160" relative="1" as="geometry"><mxPoint x="260" y="302.76" as="sourcePoint"/><mxPoint x="340" y="302.76" as="targetPoint"/></mxGeometry></mxCell><mxCell id="ygsTHAakZKHn0m8YTthS-25" value="Map" style="swimlane;fontStyle=1;align=center;verticalAlign=top;childLayout=stackLayout;horizontal=1;startSize=26;horizontalStack=0;resizeParent=1;resizeParentMax=0;resizeLast=0;collapsible=1;marginBottom=0;whiteSpace=wrap;html=1;" parent="1" vertex="1"><mxGeometry x="110" y="570" width="160" height="86" as="geometry"/></mxCell><mxCell id="ygsTHAakZKHn0m8YTthS-26" value="+ field: type" style="text;strokeColor=none;fillColor=none;align=left;verticalAlign=top;spacingLeft=4;spacingRight=4;overflow=hidden;rotatable=0;points=[[0,0.5],[1,0.5]];portConstraint=eastwest;whiteSpace=wrap;html=1;" parent="ygsTHAakZKHn0m8YTthS-25" vertex="1"><mxGeometry y="26" width="160" height="26" as="geometry"/></mxCell><mxCell id="ygsTHAakZKHn0m8YTthS-27" value="" style="line;strokeWidth=1;fillColor=none;align=left;verticalAlign=middle;spacingTop=-1;spacingLeft=3;spacingRight=3;rotatable=0;labelPosition=right;points=[];portConstraint=eastwest;strokeColor=inherit;" parent="ygsTHAakZKHn0m8YTthS-25" vertex="1"><mxGeometry y="52" width="160" height="8" as="geometry"/></mxCell><mxCell id="ygsTHAakZKHn0m8YTthS-28" value="+ method(type): type" style="text;strokeColor=none;fillColor=none;align=left;verticalAlign=top;spacingLeft=4;spacingRight=4;overflow=hidden;rotatable=0;points=[[0,0.5],[1,0.5]];portConstraint=eastwest;whiteSpace=wrap;html=1;" parent="ygsTHAakZKHn0m8YTthS-25" vertex="1"><mxGeometry y="60" width="160" height="26" as="geometry"/></mxCell><mxCell id="ygsTHAakZKHn0m8YTthS-29" style="edgeStyle=orthogonalEdgeStyle;rounded=0;orthogonalLoop=1;jettySize=auto;html=1;exitX=1;exitY=0.5;exitDx=0;exitDy=0;entryX=0;entryY=0.654;entryDx=0;entryDy=0;entryPerimeter=0;" parent="1" source="ygsTHAakZKHn0m8YTthS-25" target="ygsTHAakZKHn0m8YTthS-16" edge="1"><mxGeometry relative="1" as="geometry"/></mxCell><mxCell id="ygsTHAakZKHn0m8YTthS-31" value="" style="endArrow=diamondThin;endFill=1;endSize=24;html=1;rounded=0;exitX=0.5;exitY=0;exitDx=0;exitDy=0;entryX=0.5;entryY=1;entryDx=0;entryDy=0;" parent="1" source="ygsTHAakZKHn0m8YTthS-15" target="ygsTHAakZKHn0m8YTthS-9" edge="1"><mxGeometry width="160" relative="1" as="geometry"><mxPoint x="350" y="490" as="sourcePoint"/><mxPoint x="510" y="490" as="targetPoint"/></mxGeometry></mxCell></root></mxGraphModel></diagram></mxfile>